<svg xmlns="http://www.w3.org/2000/svg" viewBox="2.5 2.5 27 27">
  <!-- Lobby Rack mark: a two-panel brochure, C on the amber front panel, R on a flap unfolding from the crease. Same geometry as components/brand-mark.tsx, in the dark theme's accent-plane and on-accent tokens as sRGB hex (no double hyphens: XML comments forbid them); favicon renderers do not all read oklch. -->
  <path d="M5 3.5 H16 V28.5 H5 A1.5 1.5 0 0 1 3.5 27 V5 A1.5 1.5 0 0 1 5 3.5 Z" fill="#F0BB3B"/>
  <path d="M17.25 3.5 L28.5 5 V27 L17.25 28.5 Z" fill="#F0BB3B"/>
  <path d="M17.25 3.5 L28.5 5 V27 L17.25 28.5 Z" fill="#05212E" fill-opacity="0.14"/>
  <path d="M13.75 11 H8.75 A3 3 0 0 0 5.75 14 V22 A3 3 0 0 0 8.75 25 H13.75 V22 H9 V14 H13.75 Z" fill="#05212E"/>
  <path d="M18.5 11 H23 A4 4 0 0 1 24.6 18.67 L27.75 25 H24.5 L21.75 19 H21.5 V25 H18.5 Z M21.5 13.75 V16.75 H23 A1.5 1.5 0 0 0 23 13.75 Z" fill="#05212E" fill-rule="evenodd"/>
</svg>
